<svg width="101" height="100" viewBox="0 0 101 100" fill="none" xmlns="http://www.w3.org/2000/svg">
<path d="M50.5 50H63C69.6304 50 75.9893 47.3661 80.6777 42.6777C85.3661 37.9893 88 31.6304 88 25V20.8333H75.5C68.8696 20.8333 62.5107 23.4673 57.8223 28.1557C53.1339 32.8441 50.5 39.2029 50.5 45.8333H38C31.3696 45.8333 25.0107 43.1994 20.3223 38.511C15.6339 33.8226 13 27.4637 13 20.8333V12.5H25.5C32.1304 12.5 38.4893 15.1339 43.1777 19.8223C47.8661 24.5107 50.5 30.8696 50.5 37.5V62.5M29.6667 62.5H71.3333V79.1667C71.3333 81.3768 70.4554 83.4964 68.8926 85.0592C67.3297 86.622 65.2101 87.5 63 87.5H38C35.7899 87.5 33.6702 86.622 32.1074 85.0592C30.5446 83.4964 29.6667 81.3768 29.6667 79.1667V62.5Z" stroke="#4A4A4A" stroke-width="8.33333" stroke-linecap="round" stroke-linejoin="round"/>
</svg>
