<svg width="101" height="100" viewBox="0 0 101 100" fill="none" xmlns="http://www.w3.org/2000/svg">
<path d="M71.3333 45.8333V20.8333C71.3333 16.25 67.5833 12.5 63 12.5H38C33.4167 12.5 29.6667 16.25 29.6667 20.8333V29.1667H21.3333C16.75 29.1667 13 32.9167 13 37.5V79.1667C13 83.75 16.75 87.5 21.3333 87.5H42.1667C44.4583 87.5 46.3333 85.625 46.3333 83.3333V70.8333H54.6667V83.3333C54.6667 85.625 56.5417 87.5 58.8333 87.5H79.6667C84.25 87.5 88 83.75 88 79.1667V54.1667C88 49.5833 84.25 45.8333 79.6667 45.8333H71.3333ZM29.6667 79.1667H21.3333V70.8333H29.6667V79.1667ZM29.6667 62.5H21.3333V54.1667H29.6667V62.5ZM29.6667 45.8333H21.3333V37.5H29.6667V45.8333ZM46.3333 62.5H38V54.1667H46.3333V62.5ZM46.3333 45.8333H38V37.5H46.3333V45.8333ZM46.3333 29.1667H38V20.8333H46.3333V29.1667ZM63 62.5H54.6667V54.1667H63V62.5ZM63 45.8333H54.6667V37.5H63V45.8333ZM63 29.1667H54.6667V20.8333H63V29.1667ZM79.6667 79.1667H71.3333V70.8333H79.6667V79.1667ZM79.6667 62.5H71.3333V54.1667H79.6667V62.5Z" fill="#4A4A4A"/>
</svg>
