<svg width="101" height="100" viewBox="0 0 101 100" fill="none" xmlns="http://www.w3.org/2000/svg">
<g id="Car" clip-path="url(#clip0_464_2167)">
<g id="Group">
<path id="Vector" d="M66.1834 16.6667C68.5044 16.6668 70.7796 17.3131 72.7541 18.5332C74.7285 19.7534 76.3243 21.4992 77.3626 23.575L83.1251 35.0959C84.1417 34.6792 85.1542 34.2584 86.1376 33.7709C87.1266 33.2769 88.2713 33.196 89.32 33.5461C90.3686 33.8962 91.2353 34.6485 91.7292 35.6375C92.2232 36.6266 92.304 37.7713 91.954 38.82C91.6039 39.8686 90.8516 40.7352 89.8626 41.2292C87.8042 42.2542 86.8625 42.5709 86.8625 42.5709L90.8459 50.5417C91.7167 52.2792 92.1667 54.1917 92.1667 56.1334V66.6667C92.1693 68.4258 91.7994 70.1655 91.0812 71.7713C90.363 73.3771 89.313 74.8126 88.0001 75.9834V81.25C88.0001 82.9076 87.3416 84.4973 86.1695 85.6694C84.9974 86.8415 83.4077 87.5 81.7501 87.5C80.0925 87.5 78.5027 86.8415 77.3306 85.6694C76.1585 84.4973 75.5001 82.9076 75.5001 81.25V79.1667H25.5001V81.25C25.5001 82.9076 24.8416 84.4973 23.6695 85.6694C22.4974 86.8415 20.9077 87.5 19.2501 87.5C17.5925 87.5 16.0027 86.8415 14.8306 85.6694C13.6585 84.4973 13.0001 82.9076 13.0001 81.25V75.9834C10.4417 73.6917 8.83339 70.3667 8.83339 66.6667V56.1334C8.83417 54.1936 9.28638 52.2806 10.1542 50.5459L14.1376 42.5709C13.1284 42.1523 12.1308 41.7063 11.1459 41.2334C10.6548 40.9897 10.2166 40.6515 9.85637 40.2382C9.49619 39.8248 9.22112 39.3445 9.04694 38.8246C8.87275 38.3048 8.80287 37.7556 8.8413 37.2087C8.87973 36.6618 9.02572 36.1279 9.27089 35.6375C9.77577 34.6536 10.6473 33.9077 11.6974 33.5608C12.7474 33.2139 13.8918 33.2938 14.8834 33.7834C15.8626 34.2584 16.8667 34.6875 17.8751 35.0959L23.6376 23.575C24.6758 21.4992 26.2716 19.7534 28.246 18.5332C30.2205 17.3131 32.4957 16.6668 34.8167 16.6667H66.1834ZM78.9751 45.4334C71.8917 47.6709 61.8126 50 50.5001 50C39.1876 50 29.1084 47.6667 22.0251 45.4334L17.6084 54.2667C17.318 54.8461 17.1668 55.4853 17.1667 56.1334V66.6667C17.1667 67.7718 17.6057 68.8316 18.3871 69.613C19.1685 70.3944 20.2283 70.8334 21.3334 70.8334H79.6667C80.7718 70.8334 81.8316 70.3944 82.613 69.613C83.3944 68.8316 83.8334 67.7718 83.8334 66.6667V56.1334C83.8327 55.4867 83.6815 54.849 83.3917 54.2709L78.9751 45.4334ZM31.7501 54.1667C33.4077 54.1667 34.9974 54.8252 36.1695 55.9973C37.3416 57.1694 38.0001 58.7591 38.0001 60.4167C38.0001 62.0743 37.3416 63.664 36.1695 64.8361C34.9974 66.0082 33.4077 66.6667 31.7501 66.6667C30.0925 66.6667 28.5027 66.0082 27.3306 64.8361C26.1585 63.664 25.5001 62.0743 25.5001 60.4167C25.5001 58.7591 26.1585 57.1694 27.3306 55.9973C28.5027 54.8252 30.0925 54.1667 31.7501 54.1667ZM69.2501 54.1667C70.9077 54.1667 72.4974 54.8252 73.6695 55.9973C74.8416 57.1694 75.5001 58.7591 75.5001 60.4167C75.5001 62.0743 74.8416 63.664 73.6695 64.8361C72.4974 66.0082 70.9077 66.6667 69.2501 66.6667C67.5925 66.6667 66.0027 66.0082 64.8306 64.8361C63.6585 63.664 63.0001 62.0743 63.0001 60.4167C63.0001 58.7591 63.6585 57.1694 64.8306 55.9973C66.0027 54.8252 67.5925 54.1667 69.2501 54.1667ZM66.1834 25H34.8167C34.0431 25.0004 33.2849 25.2162 32.627 25.6232C31.9691 26.0301 31.4375 26.6122 31.0917 27.3042L25.8001 37.875C32.2501 39.8125 40.9417 41.6667 50.5001 41.6667C60.0584 41.6667 68.7501 39.8125 75.1959 37.875L69.9084 27.3042C69.5626 26.6122 69.031 26.0301 68.3731 25.6232C67.7152 25.2162 66.957 25.0004 66.1834 25Z" fill="#4A4A4A"/>
</g>
</g>
<defs>
<clipPath id="clip0_464_2167">
<rect width="100" height="100" fill="white" transform="translate(0.5)"/>
</clipPath>
</defs>
</svg>
