<svg width="101" height="100" viewBox="0 0 101 100" fill="none" xmlns="http://www.w3.org/2000/svg">
<path d="M47.375 68.75C47.375 69.9932 46.8811 71.1855 46.0021 72.0646C45.123 72.9436 43.9307 73.4375 42.6875 73.4375H31.75C30.5068 73.4375 29.3145 72.9436 28.4354 72.0646C27.5564 71.1855 27.0625 69.9932 27.0625 68.75C27.0625 67.5068 27.5564 66.3145 28.4354 65.4354C29.3145 64.5564 30.5068 64.0625 31.75 64.0625H42.6875C43.9307 64.0625 45.123 64.5564 46.0021 65.4354C46.8811 66.3145 47.375 67.5068 47.375 68.75ZM69.25 64.0625H58.3125C57.0693 64.0625 55.877 64.5564 54.9979 65.4354C54.1189 66.3145 53.625 67.5068 53.625 68.75C53.625 69.9932 54.1189 71.1855 54.9979 72.0646C55.877 72.9436 57.0693 73.4375 58.3125 73.4375H69.25C70.4932 73.4375 71.6855 72.9436 72.5646 72.0646C73.4436 71.1855 73.9375 69.9932 73.9375 68.75C73.9375 67.5068 73.4436 66.3145 72.5646 65.4354C71.6855 64.5564 70.4932 64.0625 69.25 64.0625ZM98.9375 84.375C98.9375 85.6182 98.4436 86.8105 97.5646 87.6896C96.6855 88.5686 95.4932 89.0625 94.25 89.0625H6.75C5.5068 89.0625 4.31451 88.5686 3.43544 87.6896C2.55636 86.8105 2.0625 85.6182 2.0625 84.375C2.0625 83.1318 2.55636 81.9395 3.43544 81.0604C4.31451 80.1814 5.5068 79.6875 6.75 79.6875H11.4375V34.375C11.4375 33.5045 11.6799 32.6511 12.1376 31.9106C12.5952 31.1701 13.2501 30.5717 14.0287 30.1824C14.8073 29.7931 15.679 29.6283 16.546 29.7064C17.413 29.7846 18.2411 30.1027 18.9375 30.625L36.4375 43.75V34.375C36.4375 33.5045 36.6799 32.6511 37.1376 31.9106C37.5952 31.1701 38.2501 30.5717 39.0287 30.1824C39.8073 29.7931 40.679 29.6283 41.546 29.7064C42.413 29.7846 43.2411 30.1027 43.9375 30.625L56.957 40.3906L61.1016 11.3945C61.3754 9.53626 62.3063 7.83772 63.7253 6.60713C65.1444 5.37655 66.9576 4.69547 68.8359 4.6875H75.9141C77.7924 4.69547 79.6056 5.37655 81.0247 6.60713C82.4437 7.83772 83.3746 9.53626 83.6484 11.3945L89.5078 52.4609C89.5078 52.5 89.5547 52.9844 89.5547 53.125V79.6875H94.2422C94.8584 79.6865 95.4688 79.807 96.0384 80.0421C96.608 80.2772 97.1257 80.6223 97.5618 81.0577C97.9979 81.493 98.3439 82.0101 98.5799 82.5794C98.816 83.1486 98.9375 83.7588 98.9375 84.375ZM65.5117 46.8086L67.6875 48.4375H79.4688L74.5586 14.0625H70.1914L65.5117 46.8086ZM20.8125 79.6875H80.1875V57.8125H66.125C65.1108 57.8125 64.1239 57.4835 63.3125 56.875L57.6953 52.6641H57.6719L45.8125 43.75V53.125C45.8125 53.9955 45.5701 54.8489 45.1124 55.5894C44.6548 56.3299 43.9999 56.9283 43.2213 57.3176C42.4427 57.7069 41.571 57.8717 40.704 57.7936C39.837 57.7154 39.0089 57.3973 38.3125 56.875L20.8125 43.75V79.6875Z" fill="#4A4A4A"/>
</svg>
