<svg width="101" height="100" viewBox="0 0 101 100" fill="none" xmlns="http://www.w3.org/2000/svg">
<g id="Fertilizer">
<g id="Group">
<path id="Vector" d="M8.83203 91.6666H92.1654M25.4987 29.1666H75.4987" stroke="#4A4A4A" stroke-width="8.33333" stroke-linecap="round" stroke-linejoin="round"/>
<path id="Vector_2" d="M29.665 29.1666H71.3317L73.1588 43.7854C73.3296 45.1479 73.6338 46.4895 74.0671 47.7895L81.013 68.6291C81.5014 70.0935 81.8257 71.6077 81.9796 73.1437L83.8317 91.6666H17.165L19.0171 73.1458C19.1709 71.6091 19.4951 70.0942 19.9838 68.6291L26.9296 47.7895C27.363 46.4895 27.6671 45.1479 27.838 43.7854L29.665 29.1666Z" stroke="#4A4A4A" stroke-width="8.33333" stroke-linejoin="round"/>
<path id="Vector_3" d="M50.499 16.6666L52.224 14.9416C52.9979 14.1675 53.9167 13.5534 54.928 13.1344C55.9393 12.7155 57.0232 12.4999 58.1178 12.4999H59.5469C60.6416 12.5 61.7254 12.2843 62.7367 11.8654C63.748 11.4465 64.6668 10.8324 65.4407 10.0583L67.1657 8.33325" stroke="#4A4A4A" stroke-width="8.33333" stroke-linecap="round" stroke-linejoin="round"/>
<path id="Vector_4" d="M35.915 64.5832C35.9177 67.4484 36.7628 70.2495 38.3453 72.638C39.9278 75.0265 42.1777 76.897 44.815 78.0166M65.0817 64.5832C65.0788 67.4483 64.2335 70.2493 62.6511 72.6378C61.0687 75.0263 58.8189 76.8967 56.1817 78.0166M39.9442 54.5207C41.3045 53.0903 42.9417 51.9518 44.7562 51.1746C46.5707 50.3973 48.5244 49.9977 50.4984 49.9999C52.4727 49.9974 54.4268 50.3969 56.2417 51.1741C58.0565 51.9514 59.6941 53.09 61.0546 54.5207" stroke="#4A4A4A" stroke-width="8.33333" stroke-linecap="round"/>
<path id="Vector_5" d="M50.4987 68.75C52.7999 68.75 54.6654 66.8845 54.6654 64.5833C54.6654 62.2821 52.7999 60.4166 50.4987 60.4166C48.1975 60.4166 46.332 62.2821 46.332 64.5833C46.332 66.8845 48.1975 68.75 50.4987 68.75Z" fill="#4A4A4A"/>
</g>
</g>
</svg>
