<svg width="101" height="100" viewBox="0 0 101 100" fill="none" xmlns="http://www.w3.org/2000/svg">
<g id="Marine">
<path id="Vector" d="M25.483 37.5C31.3705 37.5 34.483 34.3875 36.7538 32.1125C38.7955 30.0708 39.7997 29.1666 42.1372 29.1666C44.4747 29.1666 45.4788 30.0708 47.5205 32.1125C49.7913 34.3875 52.9038 37.5 58.7955 37.5C64.6913 37.5 67.808 34.3875 70.0872 32.1125C72.133 30.0708 73.1372 29.1666 75.483 29.1666C77.8288 29.1666 78.833 30.0708 80.8788 32.1125C83.1538 34.3875 86.2705 37.5 92.1664 37.5V29.1666C89.8205 29.1666 88.8163 28.2625 86.7705 26.2208C84.4955 23.9458 81.3788 20.8333 75.483 20.8333C69.5872 20.8333 66.4747 23.9458 64.1955 26.2166C62.1497 28.2625 61.1497 29.1666 58.7955 29.1666C56.4538 29.1666 55.4538 28.2625 53.4122 26.2208C51.1413 23.9458 48.0288 20.8333 42.1372 20.8333C36.2455 20.8333 33.133 23.9458 30.8622 26.2208C28.8205 28.2625 27.8205 29.1666 25.483 29.1666C23.1455 29.1666 22.1455 28.2625 20.1038 26.2208C17.833 23.9458 14.7205 20.8333 8.83301 20.8333V29.1666C11.1705 29.1666 12.1705 30.0708 14.2122 32.1125C16.483 34.3875 19.5955 37.5 25.483 37.5ZM25.483 58.3333C31.3705 58.3333 34.483 55.2208 36.7538 52.9458C38.7955 50.9041 39.7997 50 42.1372 50C44.4747 50 45.4788 50.9041 47.5205 52.9458C49.7913 55.2208 52.9038 58.3333 58.7955 58.3333C64.6913 58.3333 67.808 55.2208 70.0872 52.9458C72.133 50.9041 73.1372 50 75.483 50C77.8288 50 78.833 50.9041 80.8788 52.9458C83.1538 55.2208 86.2705 58.3333 92.1664 58.3333V50C89.8205 50 88.8163 49.0958 86.7705 47.0541C84.4955 44.7791 81.3788 41.6666 75.483 41.6666C69.5872 41.6666 66.4747 44.7791 64.1955 47.05C62.1497 49.0958 61.1497 50 58.7955 50C56.4538 50 55.4538 49.0958 53.4122 47.0541C51.1413 44.7791 48.0288 41.6666 42.1372 41.6666C36.2455 41.6666 33.133 44.7791 30.8622 47.0541C28.8205 49.0958 27.8205 50 25.483 50C23.1455 50 22.1455 49.0958 20.1038 47.0541C17.833 44.7791 14.7205 41.6666 8.83301 41.6666V50C11.1705 50 12.1705 50.9041 14.2122 52.9458C16.483 55.2208 19.5955 58.3333 25.483 58.3333ZM25.483 79.1666C31.3705 79.1666 34.483 76.0541 36.7538 73.7791C38.7955 71.7375 39.7997 70.8333 42.1372 70.8333C44.4747 70.8333 45.4788 71.7375 47.5205 73.7791C49.7913 76.0541 52.9038 79.1666 58.7955 79.1666C64.6913 79.1666 67.808 76.0541 70.0872 73.7791C72.133 71.7375 73.1372 70.8333 75.483 70.8333C77.8288 70.8333 78.833 71.7375 80.8788 73.7791C83.1538 76.0541 86.2705 79.1666 92.1664 79.1666V70.8333C89.8205 70.8333 88.8163 69.9291 86.7705 67.8875C84.4955 65.6125 81.3788 62.5 75.483 62.5C69.5872 62.5 66.4747 65.6125 64.1955 67.8833C62.1497 69.9291 61.1497 70.8333 58.7955 70.8333C56.4538 70.8333 55.4538 69.9291 53.4122 67.8875C51.1413 65.6125 48.0288 62.5 42.1372 62.5C36.2455 62.5 33.133 65.6125 30.8622 67.8875C28.8205 69.9291 27.8205 70.8333 25.483 70.8333C23.1455 70.8333 22.1455 69.9291 20.1038 67.8875C17.833 65.6125 14.7205 62.5 8.83301 62.5V70.8333C11.1705 70.8333 12.1705 71.7375 14.2122 73.7791C16.483 76.0541 19.5955 79.1666 25.483 79.1666Z" fill="#4A4A4A"/>
</g>
</svg>
