<svg width="101" height="100" viewBox="0 0 101 100" fill="none" xmlns="http://www.w3.org/2000/svg">
<g id="Mining">
<path id="Vector" d="M22.7352 3.46092C21.0895 3.46873 19.4516 3.62362 17.834 3.9367C38.7129 16.5045 54.3033 33.3039 66.6074 52.7344C67.1008 42.2344 62.8828 31.4199 56.1518 22.6074C53.3984 23.6422 50.0039 22.7523 47.6619 20.4101C45.3221 18.0703 44.4279 14.6783 45.4584 11.9262C38.4805 6.66112 30.5156 3.42186 22.7352 3.46092ZM97.0637 7.44627L83.209 22.6074L89.0801 47.1314L78.3199 48.8463L74.5295 64.5935L88.885 72.2349L80.8283 83.1601L86.6209 91.7603L69.2807 86.3648L72.5033 77.8015L57.5254 71.1914L60.0887 54.6752L38.3357 66.0277L37.5115 81.3109L15.5936 75.9094L9.09941 96.2523H97.0635V7.44627H97.0637ZM51.507 11.4687C51.4313 11.4707 51.3555 11.4742 51.2812 11.4805C50.5695 11.5439 49.9371 11.8117 49.4867 12.2617C48.2861 13.4629 48.3645 15.9492 50.2436 17.8281C52.1229 19.7076 54.6094 19.7859 55.81 18.5851C57.0107 17.3844 56.9324 14.898 55.0531 13.0187C53.9522 11.9178 52.6439 11.4377 51.507 11.4687ZM38.8789 24.9205L5.4375 58.3738C6.27207 60.7031 7.59121 62.4851 10.3691 63.3789L43.8535 29.8828C42.3309 28.1465 40.6684 26.4972 38.8789 24.9205ZM69.8906 27.191L71.7098 43.7312L77.0686 27.1908H69.8908L69.8906 27.191ZM44.1035 41.8332L40.1668 48.8521L58.2697 50.2926L44.1037 41.833L44.1035 41.8332Z" fill="#4A4A4A"/>
</g>
</svg>
