<svg width="101" height="100" viewBox="0 0 101 100" fill="none" xmlns="http://www.w3.org/2000/svg">
<path d="M88.1078 73.8409L88.1077 73.8407L61.9745 30.2942V13.6625H63.7807C65.7111 13.6625 67.287 12.0866 67.287 10.1562C67.287 8.22587 65.7111 6.65 63.7807 6.65H37.2182C35.2878 6.65 33.712 8.22587 33.712 10.1562C33.712 12.0866 35.2878 13.6625 37.2182 13.6625H39.0245V30.2942L12.8913 73.8407C9.79334 79.0021 9.32558 83.8994 11.4009 87.5651C13.4762 91.2308 17.9163 93.35 23.937 93.35H77.062C83.0825 93.35 87.5227 91.2322 89.598 87.5672C91.6734 83.9021 91.2056 79.0048 88.1078 73.8409ZM71.4913 59.775H29.5076L45.9159 32.4279L46.037 32.2261V31.9906V13.6625H54.962V31.9906V32.2261L55.0831 32.4279L71.4913 59.775Z" fill="#4A4A4A" stroke="#4A4A4A" stroke-width="1.7"/>
</svg>
