<svg width="101" height="100" viewBox="0 0 101 100" fill="none" xmlns="http://www.w3.org/2000/svg">
<g id="Paper" clip-path="url(#clip0_464_2137)">
<g id="Group">
<path id="Vector" d="M75.4997 12.5C81.558 12.5 85.7163 17.6458 88.1247 22.8542C90.5039 28.0208 91.9497 34.7625 92.1455 42.0583L92.1664 43.75V83.3333C92.1668 83.8948 92.0538 84.4506 91.834 84.9673C91.6143 85.484 91.2924 85.951 90.8876 86.3401C90.4829 86.7293 90.0037 87.0327 89.4788 87.232C88.9538 87.4313 88.3941 87.5225 87.833 87.5L87.3163 87.4417L75.4997 85.475L63.683 87.4417C63.1829 87.5252 62.6717 87.5167 62.1747 87.4167L61.683 87.2875L50.4997 83.5583L39.3163 87.2875C38.7298 87.4829 38.107 87.5454 37.4933 87.4703C36.8796 87.3952 36.2903 87.1844 35.7681 86.8533C35.246 86.5223 34.804 86.0791 34.4744 85.556C34.1447 85.033 33.9356 84.4431 33.8622 83.8292L33.833 83.3333V71.1375C31.6205 73.4292 28.8497 75 25.4997 75C19.4413 75 15.283 69.8542 12.8747 64.6458C10.3163 59.0833 8.83301 51.6917 8.83301 43.75C8.83301 35.8083 10.3122 28.4167 12.8747 22.8542C15.1705 17.8792 19.0663 12.9667 24.6872 12.5333L25.4997 12.5H75.4997ZM75.4997 20.8333H37.0913C37.4663 21.5 37.808 22.175 38.1205 22.8542C40.6872 28.4167 42.1663 35.8083 42.1663 43.75V77.5542L49.183 75.2125C50.0377 74.9278 50.9616 74.9278 51.8163 75.2125L63.3372 79.0542L74.8163 77.1375C75.2663 77.0625 75.733 77.0625 76.183 77.1375L83.833 78.4167V43.75C83.833 36.7333 82.5122 30.5833 80.5538 26.3458C78.4372 21.75 76.3455 20.8333 75.4997 20.8333ZM25.4997 20.8333C24.6538 20.8333 22.5622 21.75 20.4455 26.3458C18.4872 30.5833 17.1663 36.7333 17.1663 43.75C17.1663 50.7667 18.4872 56.9167 20.4455 61.1542C22.5622 65.75 24.6538 66.6667 25.4997 66.6667C26.3455 66.6667 28.4372 65.75 30.5538 61.1542C32.5122 56.9167 33.833 50.7667 33.833 43.75C33.833 36.7333 32.5122 30.5833 30.5538 26.3458C28.4372 21.75 26.3455 20.8333 25.4997 20.8333ZM25.4997 35.4167C27.7997 35.4167 29.6663 39.1458 29.6663 43.75C29.6663 48.3542 27.7997 52.0833 25.4997 52.0833C23.1997 52.0833 21.333 48.3542 21.333 43.75C21.333 39.1458 23.1997 35.4167 25.4997 35.4167Z" fill="#4A4A4A"/>
</g>
</g>
<defs>
<clipPath id="clip0_464_2137">
<rect width="100" height="100" fill="white" transform="translate(0.5)"/>
</clipPath>
</defs>
</svg>
