<svg width="101" height="100" viewBox="0 0 101 100" fill="none" xmlns="http://www.w3.org/2000/svg">
<path d="M8.83301 83.3334H17.1663M17.1663 83.3334H42.1663M17.1663 83.3334V47.7167C17.1663 45.4917 17.1663 44.3792 17.4372 43.3417C17.677 42.4246 18.0716 41.5552 18.6038 40.7709C19.208 39.8834 20.0455 39.1459 21.7205 37.6834L41.7247 20.175C44.833 17.4584 46.3872 16.1 48.133 15.5834C49.6747 15.125 51.3205 15.125 52.8622 15.5834C54.6122 16.1 56.1705 17.4584 59.2788 20.1834L79.2788 37.6834C80.9538 39.15 81.7913 39.8834 82.3955 40.7667C82.9247 41.5584 83.3205 42.425 83.5622 43.3417C83.833 44.3792 83.833 45.4917 83.833 47.7167V83.3334M42.1663 83.3334H58.833M42.1663 83.3334V66.6667C42.1663 64.4566 43.0443 62.337 44.6071 60.7741C46.1699 59.2113 48.2895 58.3334 50.4997 58.3334C52.7098 58.3334 54.8294 59.2113 56.3922 60.7741C57.955 62.337 58.833 64.4566 58.833 66.6667V83.3334M83.833 83.3334H58.833M83.833 83.3334H92.1663" stroke="#4A4A4A" stroke-width="8.33333" stroke-linecap="round" stroke-linejoin="round"/>
</svg>
