<svg width="101" height="100" viewBox="0 0 101 100" fill="none" xmlns="http://www.w3.org/2000/svg">
<g id="Server">
<path id="Vector" d="M62.9997 70.8333C62.1756 70.8333 61.37 71.0777 60.6848 71.5355C59.9996 71.9934 59.4655 72.6441 59.1502 73.4055C58.8348 74.1668 58.7523 75.0046 58.9131 75.8129C59.0738 76.6211 59.4707 77.3635 60.0534 77.9463C60.6361 78.529 61.3785 78.9258 62.1868 79.0866C62.9951 79.2474 63.8328 79.1648 64.5942 78.8495C65.3556 78.5341 66.0063 78.0001 66.4641 77.3149C66.922 76.6297 67.1663 75.8241 67.1663 75C67.1663 73.8949 66.7274 72.8351 65.946 72.0537C65.1646 71.2723 64.1047 70.8333 62.9997 70.8333ZM37.9997 70.8333H25.4997C24.3946 70.8333 23.3348 71.2723 22.5534 72.0537C21.772 72.8351 21.333 73.8949 21.333 75C21.333 76.1051 21.772 77.1649 22.5534 77.9463C23.3348 78.7277 24.3946 79.1666 25.4997 79.1666H37.9997C39.1047 79.1666 40.1646 78.7277 40.946 77.9463C41.7274 77.1649 42.1663 76.1051 42.1663 75C42.1663 73.8949 41.7274 72.8351 40.946 72.0537C40.1646 71.2723 39.1047 70.8333 37.9997 70.8333ZM75.4997 70.8333C74.6756 70.8333 73.87 71.0777 73.1848 71.5355C72.4996 71.9934 71.9655 72.6441 71.6502 73.4055C71.3348 74.1668 71.2523 75.0046 71.4131 75.8129C71.5738 76.6211 71.9707 77.3635 72.5534 77.9463C73.1361 78.529 73.8785 78.9258 74.6868 79.0866C75.4951 79.2474 76.3328 79.1648 77.0942 78.8495C77.8556 78.5341 78.5063 78.0001 78.9641 77.3149C79.422 76.6297 79.6663 75.8241 79.6663 75C79.6663 73.8949 79.2274 72.8351 78.446 72.0537C77.6646 71.2723 76.6048 70.8333 75.4997 70.8333ZM62.9997 45.8333C62.1756 45.8333 61.37 46.0777 60.6848 46.5355C59.9996 46.9934 59.4655 47.6441 59.1502 48.4055C58.8348 49.1668 58.7523 50.0046 58.9131 50.8129C59.0738 51.6211 59.4707 52.3635 60.0534 52.9463C60.6361 53.529 61.3785 53.9258 62.1868 54.0866C62.9951 54.2474 63.8328 54.1648 64.5942 53.8495C65.3556 53.5341 66.0063 53.0001 66.4641 52.3149C66.922 51.6297 67.1663 50.8241 67.1663 50C67.1663 48.8949 66.7274 47.8351 65.946 47.0537C65.1646 46.2723 64.1047 45.8333 62.9997 45.8333ZM37.9997 45.8333H25.4997C24.3946 45.8333 23.3348 46.2723 22.5534 47.0537C21.772 47.8351 21.333 48.8949 21.333 50C21.333 51.1051 21.772 52.1649 22.5534 52.9463C23.3348 53.7277 24.3946 54.1666 25.4997 54.1666H37.9997C39.1047 54.1666 40.1646 53.7277 40.946 52.9463C41.7274 52.1649 42.1663 51.1051 42.1663 50C42.1663 48.8949 41.7274 47.8351 40.946 47.0537C40.1646 46.2723 39.1047 45.8333 37.9997 45.8333ZM75.4997 20.8333C74.6756 20.8333 73.87 21.0777 73.1848 21.5355C72.4996 21.9934 71.9655 22.6441 71.6502 23.4055C71.3348 24.1668 71.2523 25.0046 71.4131 25.8129C71.5738 26.6211 71.9707 27.3635 72.5534 27.9463C73.1361 28.529 73.8785 28.9258 74.6868 29.0866C75.4951 29.2474 76.3328 29.1648 77.0942 28.8495C77.8556 28.5341 78.5063 28.0001 78.9641 27.3149C79.422 26.6297 79.6663 25.8241 79.6663 25C79.6663 23.8949 79.2274 22.8351 78.446 22.0537C77.6646 21.2723 76.6048 20.8333 75.4997 20.8333ZM75.4997 45.8333C74.6756 45.8333 73.87 46.0777 73.1848 46.5355C72.4996 46.9934 71.9655 47.6441 71.6502 48.4055C71.3348 49.1668 71.2523 50.0046 71.4131 50.8129C71.5738 51.6211 71.9707 52.3635 72.5534 52.9463C73.1361 53.529 73.8785 53.9258 74.6868 54.0866C75.4951 54.2474 76.3328 54.1648 77.0942 53.8495C77.8556 53.5341 78.5063 53.0001 78.9641 52.3149C79.422 51.6297 79.6663 50.8241 79.6663 50C79.6663 48.8949 79.2274 47.8351 78.446 47.0537C77.6646 46.2723 76.6048 45.8333 75.4997 45.8333ZM92.1664 20.8333C92.1663 17.5181 90.8494 14.3387 88.5052 11.9945C86.161 9.65027 82.9816 8.33331 79.6663 8.33331H21.333C18.0178 8.33331 14.8384 9.65027 12.4942 11.9945C10.15 14.3387 8.83301 17.5181 8.83301 20.8333V29.1666C8.85139 32.2502 10.0089 35.2182 12.083 37.5C10.0089 39.7818 8.85139 42.7498 8.83301 45.8333V54.1666C8.85139 57.2502 10.0089 60.2182 12.083 62.5C10.0089 64.7818 8.85139 67.7498 8.83301 70.8333V79.1666C8.83301 82.4819 10.15 85.6613 12.4942 88.0055C14.8384 90.3497 18.0178 91.6666 21.333 91.6667H79.6663C82.9816 91.6666 86.161 90.3497 88.5052 88.0055C90.8494 85.6613 92.1663 82.4819 92.1664 79.1666V70.8333C92.148 67.7498 90.9905 64.7818 88.9163 62.5C90.9905 60.2182 92.148 57.2502 92.1664 54.1666V45.8333C92.148 42.7498 90.9905 39.7818 88.9163 37.5C90.9905 35.2182 92.148 32.2502 92.1664 29.1666V20.8333ZM83.833 79.1666C83.833 80.2717 83.394 81.3315 82.6126 82.1129C81.8312 82.8943 80.7714 83.3333 79.6663 83.3333H21.333C20.2279 83.3333 19.1681 82.8943 18.3867 82.1129C17.6053 81.3315 17.1663 80.2717 17.1663 79.1666V70.8333C17.1663 69.7282 17.6053 68.6684 18.3867 67.887C19.1681 67.1056 20.2279 66.6666 21.333 66.6666H79.6663C80.7714 66.6666 81.8312 67.1056 82.6126 67.887C83.394 68.6684 83.833 69.7282 83.833 70.8333V79.1666ZM83.833 54.1666C83.833 55.2717 83.394 56.3315 82.6126 57.1129C81.8312 57.8943 80.7714 58.3333 79.6663 58.3333H21.333C20.2279 58.3333 19.1681 57.8943 18.3867 57.1129C17.6053 56.3315 17.1663 55.2717 17.1663 54.1666V45.8333C17.1663 44.7282 17.6053 43.6684 18.3867 42.887C19.1681 42.1056 20.2279 41.6666 21.333 41.6666H79.6663C80.7714 41.6666 81.8312 42.1056 82.6126 42.887C83.394 43.6684 83.833 44.7282 83.833 45.8333V54.1666ZM83.833 29.1666C83.833 30.2717 83.394 31.3315 82.6126 32.1129C81.8312 32.8943 80.7714 33.3333 79.6663 33.3333H21.333C20.2279 33.3333 19.1681 32.8943 18.3867 32.1129C17.6053 31.3315 17.1663 30.2717 17.1663 29.1666V20.8333C17.1663 19.7282 17.6053 18.6684 18.3867 17.887C19.1681 17.1056 20.2279 16.6666 21.333 16.6666H79.6663C80.7714 16.6666 81.8312 17.1056 82.6126 17.887C83.394 18.6684 83.833 19.7282 83.833 20.8333V29.1666ZM62.9997 20.8333C62.1756 20.8333 61.37 21.0777 60.6848 21.5355C59.9996 21.9934 59.4655 22.6441 59.1502 23.4055C58.8348 24.1668 58.7523 25.0046 58.9131 25.8129C59.0738 26.6211 59.4707 27.3635 60.0534 27.9463C60.6361 28.529 61.3785 28.9258 62.1868 29.0866C62.9951 29.2474 63.8328 29.1648 64.5942 28.8495C65.3556 28.5341 66.0063 28.0001 66.4641 27.3149C66.922 26.6297 67.1663 25.8241 67.1663 25C67.1663 23.8949 66.7274 22.8351 65.946 22.0537C65.1646 21.2723 64.1047 20.8333 62.9997 20.8333ZM37.9997 20.8333H25.4997C24.3946 20.8333 23.3348 21.2723 22.5534 22.0537C21.772 22.8351 21.333 23.8949 21.333 25C21.333 26.105 21.772 27.1649 22.5534 27.9463C23.3348 28.7277 24.3946 29.1666 25.4997 29.1666H37.9997C39.1047 29.1666 40.1646 28.7277 40.946 27.9463C41.7274 27.1649 42.1663 26.105 42.1663 25C42.1663 23.8949 41.7274 22.8351 40.946 22.0537C40.1646 21.2723 39.1047 20.8333 37.9997 20.8333Z" fill="#4A4A4A"/>
</g>
</svg>
