<svg width="101" height="100" viewBox="0 0 101 100" fill="none" xmlns="http://www.w3.org/2000/svg">
<g id="Tshirt">
<path id="Vector" d="M50.5004 5C47.295 5 43.7677 5.93462 40.7631 6.83808C37.8173 7.73115 35.6538 8.65192 35.5708 8.67615H35.4669L25.5115 12.0338L25.1861 12.1377C24.748 12.2614 24.316 12.4058 23.8915 12.5704L22.8081 12.8992V13.01C19.9142 14.2527 15.3831 16.9423 12.7488 22.5292C9.16614 30.0962 8.96191 39.5046 8.96191 39.5046V46.5385H22.8081V95H78.1927V46.5385H92.0388V39.29C92.0388 39.29 91.7411 36.3581 91.1734 32.7996C90.6058 29.2446 90.0242 25.3227 88.0373 22.2004C85.6351 18.3663 82.231 15.2614 78.1927 13.2212V12.8958L76.7873 12.4631C76.5831 12.3696 76.6246 12.425 76.4619 12.3558L75.8111 12.1377L65.5373 8.67615H65.4265C65.3469 8.65192 63.1835 7.73115 60.2342 6.84154C57.2331 5.93462 53.7092 5 50.5004 5ZM50.5004 11.9231C52.0027 11.9231 55.4365 12.7192 58.1815 13.5465C58.8981 13.7612 58.8565 13.775 59.4796 13.9792C59.2615 14.3012 59.0988 14.6127 58.8288 14.9519C57.2088 16.9665 54.9346 18.8462 50.5004 18.8462C46.0661 18.8462 43.7919 16.9665 42.1719 14.9519C41.9019 14.6127 41.7392 14.3012 41.5211 13.9792C42.1442 13.775 42.1027 13.7612 42.8192 13.5465C45.5642 12.7192 48.9981 11.9231 50.5004 11.9231ZM34.7054 16.1427C35.2211 17.1292 35.8823 18.185 36.7615 19.2788C38.4115 21.3294 40.5052 22.979 42.8849 24.1032C45.2647 25.2274 47.8686 25.7971 50.5004 25.7692C57.0981 25.7692 61.6811 22.4565 64.2392 19.2788C65.1185 18.185 65.7796 17.1292 66.2919 16.1427L71.2696 17.8735V88.0769H29.7311V17.8735L34.7054 16.1427ZM22.8081 20.7915V39.6154H15.885C15.8988 39.425 16.425 31.0412 19.0211 25.5512C19.8763 23.6804 21.1765 22.0475 22.8081 20.795V20.7915ZM78.1927 21.335C79.4631 22.4012 80.8684 23.7927 82.1942 25.8765C82.7481 26.7558 83.8315 30.6362 84.3577 33.8831C84.8596 36.95 85.0881 39.3454 85.1158 39.6154H78.1927V21.335Z" fill="#4A4A4A"/>
</g>
</svg>
