<svg width="101" height="100" viewBox="0 0 101 100" fill="none" xmlns="http://www.w3.org/2000/svg">
<path d="M78.625 62.5C78.625 79.7598 67.7598 90.625 50.5 90.625C33.2402 90.625 22.375 79.7598 22.375 62.5C22.375 43.9785 42.5371 18.9746 48.7207 11.7422C48.9407 11.4852 49.2138 11.279 49.5211 11.1375C49.8284 10.9961 50.1627 10.9229 50.501 10.9229C50.8393 10.9229 51.1736 10.9961 51.4809 11.1375C51.7882 11.279 52.0612 11.4852 52.2812 11.7422C58.4629 18.9746 78.625 43.9785 78.625 62.5Z" stroke="#4A4A4A" stroke-width="6.25" stroke-miterlimit="10"/>
<path d="M67.6875 64.0625C67.6875 67.7921 66.2059 71.369 63.5687 74.0062C60.9315 76.6434 57.3546 78.125 53.625 78.125" stroke="#4A4A4A" stroke-width="6.25" stroke-linecap="round" stroke-linejoin="round"/>
</svg>
