<svg width="101" height="100" viewBox="0 0 101 100" fill="none" xmlns="http://www.w3.org/2000/svg">
<path d="M14.6948 33.2584C13.8842 33.2496 13.0858 33.4557 12.3809 33.8557C9.57659 35.4752 9.05667 40.0456 11.2442 43.8346C12.3821 45.8055 14.0426 47.286 15.9201 48.003L14.6948 33.2584ZM14.6948 33.2584C15.4551 33.2663 16.2075 33.4131 16.9151 33.6915L14.6948 33.2584ZM33.6153 27.154C34.9946 28.2569 36.5461 28.692 37.9838 28.3795C41.1481 27.6916 43.036 23.4977 42.1063 19.2213C41.6231 16.9973 40.4924 15.0815 38.9227 13.8266L33.6153 27.154ZM33.6153 27.154C32.0455 25.8989 30.9149 23.9831 30.4317 21.7592L33.6153 27.154ZM72.4947 78.2474C72.2469 79.5302 71.7168 80.741 70.9438 81.7925L70.8323 81.9401C70.0082 83.031 68.9414 83.9151 67.7163 84.5222C66.4912 85.1292 65.1416 85.4426 63.7743 85.4375H63.7725H37.228C35.8611 85.4376 34.5127 85.1219 33.2879 84.5151C32.0632 83.9083 30.9951 83.0268 30.167 81.9393C29.3389 80.8519 28.7732 79.5879 28.514 78.2458C28.2547 76.9038 28.309 75.52 28.6725 74.2024L32.2365 61.2826C33.3393 57.2852 35.723 53.7599 39.0221 51.2477C42.3213 48.7355 46.3535 47.375 50.5002 47.375C54.647 47.375 58.6792 48.7355 61.9783 51.2477C65.2774 53.7599 67.6612 57.2852 68.7639 61.2826L72.328 74.2023L72.3285 74.2042C72.6971 75.5207 72.754 76.905 72.4947 78.2474ZM29.5291 45.0616L29.5291 45.0615C30.0924 41.5406 29.3437 37.7871 27.4371 34.4857C25.5305 31.1844 22.6539 28.6593 19.3238 27.3867L19.3237 27.3867C15.7548 26.0236 12.085 26.233 9.00597 28.01L9.00588 28.01C2.8676 31.5541 1.34999 40.1976 5.39926 47.2097C7.30493 50.5105 10.1812 53.0359 13.5106 54.3081C14.9909 54.8848 16.5643 55.1855 18.153 55.1954L18.1543 55.1954C20.1465 55.2026 22.105 54.6815 23.8302 53.6852L23.5801 53.2522L23.8302 53.6852C26.9075 51.908 28.9244 48.8335 29.5291 45.0616ZM20.2047 47.4065C19.0876 48.0514 17.6396 48.124 16.0985 47.5359C14.3424 46.8653 12.7657 45.47 11.6772 43.5846C10.6336 41.7769 10.2432 39.7939 10.4374 38.0882C10.6319 36.3798 11.4024 34.999 12.6294 34.2896C13.2571 33.9338 13.9678 33.7505 14.6893 33.7584L14.6896 33.7584C15.389 33.7657 16.0811 33.9006 16.732 34.1567L16.732 34.1568L16.7366 34.1585C18.4928 34.8295 20.0695 36.2247 21.158 38.11C22.2465 39.9953 22.6665 42.0593 22.3698 43.9157C22.109 45.5439 21.3219 46.7615 20.2047 47.4065ZM29.4001 32.4251L29.4001 32.4252C31.6994 34.2632 34.3417 35.2325 37.0284 35.2323H37.0285C37.8319 35.232 38.6329 35.1456 39.4178 34.9745C46.3438 33.4687 50.4222 25.6984 48.7023 17.7864C47.8928 14.0612 45.922 10.7793 43.1376 8.55327L42.8254 8.9438L43.1376 8.55326C40.1538 6.16784 36.5935 5.24849 33.1202 6.00384C26.1942 7.5093 22.1157 15.2797 23.8355 23.1918C24.6451 26.9172 26.6159 30.1991 29.4001 32.4251ZM34.6594 13.0886C34.6596 13.0885 34.6598 13.0885 34.66 13.0884L34.5537 12.5999L34.6591 13.0886C34.6592 13.0886 34.6593 13.0886 34.6594 13.0886ZM71.4717 45.0614L71.4717 45.0615C72.0756 48.8335 74.0922 51.908 77.1708 53.6852C78.8959 54.6816 80.8544 55.2027 82.8466 55.1954L82.8479 55.1953C84.4364 55.1855 86.0098 54.8848 87.49 54.3082C90.8195 53.036 93.6959 50.5105 95.6016 47.2096C99.6505 40.1975 98.1328 31.5541 91.9946 28.01L91.7446 28.443L91.9946 28.01C88.9166 26.233 85.245 26.0236 81.6767 27.3867L81.8551 27.8538L81.6767 27.3867C78.3466 28.6589 75.4697 31.1844 73.5637 34.4858C71.6577 37.7871 70.9088 41.5414 71.4717 45.0614ZM84.9019 47.5359L84.9018 47.5359C83.3616 48.1246 81.9134 48.0519 80.7962 47.4065C79.679 46.7612 78.8924 45.5439 78.6311 43.9156C78.334 42.0592 78.7537 39.9962 79.8423 38.1119C80.9311 36.2273 82.5078 34.8313 84.2638 34.1603L84.2686 34.1584C84.9194 33.9021 85.6116 33.7669 86.311 33.7594L86.3112 33.7594C87.0327 33.7515 87.7435 33.9348 88.3712 34.2906C89.5981 34.9994 90.3687 36.3796 90.5633 38.0878C90.7576 39.7933 90.3672 41.7764 89.3233 43.5846C88.2347 45.47 86.658 46.8653 84.9019 47.5359ZM63.9719 35.2323H63.9721C66.6585 35.2323 69.3018 34.2633 71.6004 32.4251C74.3845 30.1992 76.3553 26.9171 77.165 23.192C78.8848 15.2799 74.8062 7.5095 67.8802 6.00403C64.4072 5.24909 60.8467 6.16778 57.8628 8.55345C55.0785 10.7793 53.1076 14.0614 52.2982 17.7864C50.5782 25.6984 54.6566 33.4687 61.5826 34.9745C62.3675 35.1456 63.1686 35.232 63.9719 35.2323ZM59.3827 19.3266L59.3828 19.3265C59.845 17.1989 60.9218 15.3891 62.3899 14.2163L62.39 14.2162C63.4062 13.4038 64.4939 13.0012 65.5225 13.0012L65.5234 13.0012C65.7982 13.0007 66.0722 13.0297 66.3408 13.0875C67.726 13.3888 68.8811 14.4694 69.5871 16.0379C70.2917 17.6034 70.524 19.6112 70.0806 21.6509C69.6179 23.7785 68.5411 25.5883 67.0734 26.7614L67.0733 26.7615C65.7858 27.791 64.3851 28.1629 63.1231 27.889C61.7375 27.5882 60.5822 26.5079 59.8761 24.9395C59.1715 23.3742 58.9392 21.3665 59.3827 19.3266ZM75.7527 59.3546C74.228 53.8275 70.9321 48.9532 66.3705 45.4796C61.809 42.006 56.2338 40.1249 50.5002 40.1249C44.7667 40.1249 39.1915 42.006 34.6299 45.4796C30.0683 48.9532 26.7724 53.8275 25.2477 59.3546L21.6837 72.2745C21.0233 74.6685 20.9247 77.1826 21.3958 79.621C21.8668 82.0593 22.8946 84.3559 24.3991 86.3316C25.9037 88.3074 27.8442 89.9089 30.0695 91.0114C32.2947 92.1139 34.7446 92.6875 37.228 92.6875H63.7725C66.2559 92.6875 68.7057 92.1139 70.931 91.0114C73.1562 89.9089 75.0968 88.3074 76.6013 86.3316C78.1058 84.3559 79.1337 82.0593 79.6047 79.621C80.0757 77.1826 79.9772 74.6685 79.3168 72.2745L75.7527 59.3546Z" fill="#4A4A4A" stroke="#4A4A4A"/>
</svg>
